Coordinates
version=1
nRows=26
nColumns=22
inDegrees=yes

Units are S.I. units (second, meters, Newtons, ...)
If the header above contains a line with 'inDegrees', this indicates whether rotational values are in degrees (yes) or radians (no).

endheader
time	pelvis_tilt	pelvis_list	pelvis_rotation	pelvis_tx	pelvis_ty	pelvis_tz	hip_flexion_r	hip_adduction_r	hip_rotation_r	knee_angle_r	ankle_angle_r	subtalar_angle_r	hip_flexion_l	hip_adduction_l	hip_rotation_l	knee_angle_l	ankle_angle_l	subtalar_angle_l	lumbar_extension	lumbar_bending	lumbar_rotation
      0.01000000	     -0.91481409	     -3.50720034	     -2.53140040	      0.08821537	      0.93255740	      1.10782091	     -2.49958974	      1.62422831	      4.83891013	     -2.63072472	      2.24199883	      3.47598557	     -3.71811153	     -6.36799501	    -10.18426259	     -5.83125677	      7.98232776	      2.74632213	     -3.31142359	     -0.75701717	     -0.14998547
      0.02000000	     -0.91537540	     -3.51028317	     -2.53190223	      0.08821818	      0.93255951	      1.10771128	     -2.49755367	      1.62069580	      4.83724738	     -2.63219417	      2.24042997	      3.47629536	     -3.71811242	     -6.36479103	    -10.18436851	     -5.83136360	      7.98273816	      2.74619666	     -3.31446782	     -0.75276012	     -0.15070780
      0.03000000	     -0.91509754	     -3.51396153	     -2.53235954	      0.08821397	      0.93256368	      1.10756990	     -2.49372289	      1.61564945	      4.83258301	     -2.63902707	      2.23738900	      3.47708878	     -3.71785544	     -6.35916922	    -10.18438164	     -5.83084683	      7.98448195	      2.74585759	     -3.32088421	     -0.74665596	     -0.15275780
      0.04000000	     -0.90612859	     -3.51570853	     -2.53029742	      0.08819418	      0.93258350	      1.10743583	     -2.47815879	      1.61206641	      4.79740250	     -2.68450410	      2.22906826	      3.48216751	     -3.72383603	     -6.35248429	    -10.18129853	     -5.83466392	      7.99443073	      2.74273332	     -3.33963683	     -0.75038142	     -0.16272231
      0.05000000	     -0.90687106	     -3.52040997	     -2.52834415	      0.08819298	      0.93258746	      1.10727659	     -2.47526741	      1.60710392	      4.79216129	     -2.68587420	      2.23119604	      3.48257852	     -3.72194702	     -6.34713683	    -10.18089069	     -5.83458478	      7.99505922	      2.74224708	     -3.34453432	     -0.74576397	     -0.16196875
      0.06000000	     -0.90707867	     -3.52657167	     -2.52869587	      0.08820369	      0.93259208	      1.10714430	     -2.47463247	      1.60565770	      4.79169344	     -2.68617127	      2.23135594	      3.48255096	     -3.72219340	     -6.34518629	    -10.18080813	     -5.83500058	      7.99510601	      2.74222288	     -3.34492918	     -0.74783143	     -0.16212461
      0.07000000	     -0.89106772	     -3.51787468	     -2.51776173	      0.08815416	      0.93261659	      1.10696141	     -2.45106246	      1.58909490	      4.72293340	     -2.75759440	      2.25345464	      3.47609786	     -3.72259133	     -6.32515016	    -10.16469322	     -5.85561084	      8.00662909	      2.73470539	     -3.37776843	     -0.76068410	     -0.17134820
      0.08000000	     -0.89154392	     -3.52265697	     -2.51332806	      0.08817008	      0.93261572	      1.10679824	     -2.45019539	      1.58445386	      4.71910671	     -2.75770624	      2.25824277	      3.47467199	     -3.72203763	     -6.31927312	    -10.16480805	     -5.85472256	      8.00698967	      2.73366474	     -3.37752022	     -0.75712127	     -0.17194390
      0.09000000	     -0.89150949	     -3.52851892	     -2.51340980	      0.08818526	      0.93261467	      1.10666954	     -2.44940562	      1.58311589	      4.71887761	     -2.75771637	      2.25865362	      3.47446261	     -3.72264134	     -6.31718916	    -10.16471967	     -5.85518637	      8.00702396	      2.73358826	     -3.37750603	     -0.75907674	     -0.17222835
      0.10000000	     -0.87649363	     -3.50458755	     -2.48935580	      0.08820514	      0.93261509	      1.10646201	     -2.44427178	      1.54853760	      4.65937899	     -2.80325627	      2.35415610	      3.41294635	     -3.73430566	     -6.27800345	    -10.12916529	     -5.85327899	      8.01650081	      2.70272366	     -3.39370899	     -0.78484540	     -0.20059072
      0.11000000	     -0.87453690	     -3.50847422	     -2.48436506	      0.08824602	      0.93260616	      1.10630832	     -2.44544424	      1.54381628	      4.66390678	     -2.80875509	      2.35383713	      3.41067752	     -3.73743996	     -6.27196721	    -10.12888136	     -5.85426800	      8.01655097	      2.70181954	     -3.38987324	     -0.78081805	     -0.20219861
      0.12000000	     -0.86609874	     -3.50243623	     -2.48243596	      0.08826952	      0.93260117	      1.10616170	     -2.44551715	      1.52791456	      4.70173247	     -2.82979722	      2.36538273	      3.39200985	     -3.75114438	     -6.25440217	    -10.11948907	     -5.84617321	      8.02333505	      2.69418383	     -3.39828069	     -0.78759675	     -0.22619140
      0.13000000	     -0.86310600	     -3.50450971	     -2.47372912	      0.08833730	      0.93258486	      1.10599795	     -2.45021346	      1.52097692	      4.70863671	     -2.83590974	      2.36743615	      3.38975682	     -3.75634066	     -6.24642136	    -10.11914762	     -5.84771779	      8.02394438	      2.69343338	     -3.39109453	     -0.78221909	     -0.22493941
      0.14000000	     -0.83960298	     -3.47812526	     -2.48096320	      0.08840391	      0.93258667	      1.10586070	     -2.47804875	      1.48012868	      4.78849519	     -2.84020396	      2.42179328	      3.35613440	     -3.79696312	     -6.20397601	    -10.10128313	     -5.82768843	      8.03451631	      2.67878542	     -3.40830484	     -0.81369174	     -0.23486801
      0.15000000	     -0.83612839	     -3.47940330	     -2.46866046	      0.08847407	      0.93256857	      1.10568270	     -2.48203524	      1.47167330	      4.79662747	     -2.84908406	      2.42183809	      3.35461345	     -3.80201023	     -6.19531427	    -10.10276332	     -5.82806194	      8.03453087	      2.67826321	     -3.40380914	     -0.80536074	     -0.23428314
      0.16000000	     -0.79750608	     -3.44778164	     -2.47631518	      0.08852829	      0.93259364	      1.10553471	     -2.52243229	      1.42366987	      4.87863768	     -2.85758193	      2.46880462	      3.33402115	     -3.85753905	     -6.14576418	    -10.09315331	     -5.80760611	      8.03639219	      2.66410301	     -3.44473444	     -0.84068338	     -0.24092084
      0.17000000	     -0.78432351	     -3.44549022	     -2.47081131	      0.08857282	      0.93259319	      1.10538076	     -2.52554855	      1.41255545	      4.90291093	     -2.88575770	      2.46434261	      3.33214377	     -3.87322110	     -6.13371022	    -10.09264065	     -5.80723677	      8.03620354	      2.66128807	     -3.45674849	     -0.83940148	     -0.26014324
      0.18000000	     -0.76748901	     -3.43780935	     -2.46785327	      0.08860802	      0.93259852	      1.10523436	     -2.53427157	      1.39523645	      4.93198297	     -2.90926418	      2.47038950	      3.33355699	     -3.88997212	     -6.11604496	    -10.08470352	     -5.81293058	      8.04113841	      2.65817949	     -3.47468512	     -0.84575727	     -0.27388909
      0.19000000	     -0.75137273	     -3.43016853	     -2.46637251	      0.08863723	      0.93260516	      1.10509331	     -2.54267116	      1.37808233	      4.95205474	     -2.93062532	      2.47936373	      3.33844354	     -3.90583276	     -6.09854553	    -10.08047549	     -5.81806419	      8.04691361	      2.65408302	     -3.49322564	     -0.85185297	     -0.28508330
      0.20000000	     -0.74836222	     -3.43187724	     -2.46400461	      0.08868464	      0.93259846	      1.10495999	     -2.54538210	      1.37228751	      4.95496172	     -2.93735562	      2.47976101	      3.33939269	     -3.90988779	     -6.09232369	    -10.08000322	     -5.82154795	      8.04746325	      2.65349460	     -3.49168267	     -0.84737990	     -0.28600389
      0.21000000	     -0.73260177	     -3.42638931	     -2.46918585	      0.08866491	      0.93261682	      1.10484955	     -2.54198970	      1.35958876	      4.96773408	     -2.97311398	      2.48103523	      3.34826355	     -3.91992922	     -6.07881203	    -10.07749928	     -5.83447012	      8.05506583	      2.64905498	     -3.52020324	     -0.85495734	     -0.30382409
      0.22000000	     -0.73103067	     -3.42821230	     -2.47226123	      0.08868857	      0.93261439	      1.10472932	     -2.54211714	      1.35364399	      4.96650780	     -2.97738422	      2.48156832	      3.35019552	     -3.92166949	     -6.07271004	    -10.07769000	     -5.83798513	      8.05604603	      2.64815908	     -3.52348958	     -0.84868334	     -0.30492600
      0.23000000	     -0.71728757	     -3.42675843	     -2.48054259	      0.08867255	      0.93263571	      1.10463464	     -2.53573257	      1.34641544	      4.95874867	     -3.01411357	      2.47899578	      3.36366203	     -3.92879989	     -6.06452800	    -10.08622782	     -5.85563962	      8.06482332	      2.64188571	     -3.54947821	     -0.85154544	     -0.31631765
      0.24000000	     -0.71880941	     -3.43005819	     -2.48849739	      0.08866290	      0.93263781	      1.10453829	     -2.53204055	      1.34302346	      4.95435025	     -3.01238090	      2.47966442	      3.36545913	     -3.92706723	     -6.06109725	    -10.08729225	     -5.85667081	      8.06578100	      2.64102982	     -3.55763825	     -0.84686600	     -0.31777335
      0.25000000	     -0.71098490	     -3.43509030	     -2.50101622	      0.08864216	      0.93265652	      1.10444722	     -2.51902235	      1.34298946	      4.92817905	     -3.04827968	      2.47407936	      3.38335259	     -3.92743211	     -6.05997104	    -10.11355394	     -5.87602716	      8.07736230	      2.63134534	     -3.57823182	     -0.83894903	     -0.32608510
      0.26000000	     -0.71448230	     -3.43833489	     -2.51111780	      0.08862147	      0.93266035	      1.10435467	     -2.51399980	      1.33972288	      4.92449177	     -3.04411810	      2.47466821	      3.38467554	     -3.92391840	     -6.05636456	    -10.11397149	     -5.87616979	      8.07818434	      2.63067842	     -3.58718720	     -0.83265028	     -0.32783744
